<mxfile host="app.diagrams.net" modified="2021-10-08T12:01:44.413Z" agent="5.0 (Windows NT 10.0; Win64; x64) AppleWebKit/537.36 (KHTML, like Gecko) Chrome/94.0.4606.61 Safari/537.36" etag="SPz5RyW7yO_yVISmmsEH" version="15.4.3" type="github">
  <diagram id="prtHgNgQTEPvFCAcTncT" name="Page-1">
    <mxGraphModel dx="1185" dy="588" grid="1" gridSize="10" guides="1" tooltips="1" connect="1" arrows="1" fold="1" page="1" pageScale="1" pageWidth="827" pageHeight="1169" math="0" shadow="0">
      <root>
        <mxCell id="0" />
        <mxCell id="1" parent="0" />
        <mxCell id="qG4jUHKpiXN6bC_AD9jO-21" value="" style="ellipse;whiteSpace=wrap;html=1;fillColor=#fad9d5;strokeColor=none;" parent="1" vertex="1">
          <mxGeometry x="1100.0900000000001" y="18.75" width="409.91" height="417.5" as="geometry" />
        </mxCell>
        <mxCell id="qG4jUHKpiXN6bC_AD9jO-6" value="" style="ellipse;whiteSpace=wrap;html=1;fillColor=#bac8d3;strokeColor=none;" parent="1" vertex="1">
          <mxGeometry x="1360.05" y="78.25" width="293.35" height="298.5" as="geometry" />
        </mxCell>
        <mxCell id="qG4jUHKpiXN6bC_AD9jO-25" value="" style="ellipse;whiteSpace=wrap;html=1;fillColor=#b0e3e6;strokeColor=none;" parent="1" vertex="1">
          <mxGeometry x="959.9300000000001" y="69.12" width="309.86" height="311.75" as="geometry" />
        </mxCell>
        <mxCell id="qG4jUHKpiXN6bC_AD9jO-47" style="edgeStyle=orthogonalEdgeStyle;curved=1;orthogonalLoop=1;jettySize=auto;html=1;exitX=0.5;exitY=1;exitDx=0;exitDy=0;entryX=1;entryY=0.5;entryDx=0;entryDy=0;dashed=1;dashPattern=1 1;startArrow=none;startFill=0;endArrow=classic;endFill=1;endSize=4;strokeWidth=4;strokeColor=#FFFFFF;" parent="1" source="qG4jUHKpiXN6bC_AD9jO-1" target="qG4jUHKpiXN6bC_AD9jO-3" edge="1">
          <mxGeometry relative="1" as="geometry" />
        </mxCell>
        <mxCell id="qG4jUHKpiXN6bC_AD9jO-1" value="International Fire Regulations" style="rounded=1;whiteSpace=wrap;html=1;fillColor=#d5e8d4;strokeColor=#82b366;strokeWidth=3;" parent="1" vertex="1">
          <mxGeometry x="1560" y="192.5" width="120" height="60" as="geometry" />
        </mxCell>
        <mxCell id="qG4jUHKpiXN6bC_AD9jO-12" style="edgeStyle=orthogonalEdgeStyle;curved=1;orthogonalLoop=1;jettySize=auto;html=1;exitX=0.5;exitY=1;exitDx=0;exitDy=0;entryX=0;entryY=0.5;entryDx=0;entryDy=0;dashed=1;dashPattern=1 1;endSize=4;strokeWidth=4;startArrow=classic;startFill=1;endArrow=none;endFill=0;strokeColor=#FFFFFF;" parent="1" source="qG4jUHKpiXN6bC_AD9jO-2" target="qG4jUHKpiXN6bC_AD9jO-3" edge="1">
          <mxGeometry relative="1" as="geometry" />
        </mxCell>
        <mxCell id="qG4jUHKpiXN6bC_AD9jO-46" style="edgeStyle=orthogonalEdgeStyle;curved=1;orthogonalLoop=1;jettySize=auto;html=1;exitX=0.5;exitY=0;exitDx=0;exitDy=0;entryX=0.5;entryY=0;entryDx=0;entryDy=0;dashed=1;dashPattern=1 1;startArrow=none;startFill=0;endArrow=classic;endFill=1;endSize=4;strokeWidth=4;strokeColor=#FFFFFF;" parent="1" source="qG4jUHKpiXN6bC_AD9jO-2" target="qG4jUHKpiXN6bC_AD9jO-42" edge="1">
          <mxGeometry relative="1" as="geometry">
            <Array as="points">
              <mxPoint x="1380" y="130" />
              <mxPoint x="1250" y="130" />
            </Array>
          </mxGeometry>
        </mxCell>
        <mxCell id="qG4jUHKpiXN6bC_AD9jO-2" value="International BIM standards" style="rounded=1;whiteSpace=wrap;html=1;fillColor=#d5e8d4;strokeColor=#82b366;strokeWidth=3;" parent="1" vertex="1">
          <mxGeometry x="1320" y="192.5" width="120" height="60" as="geometry" />
        </mxCell>
        <mxCell id="qG4jUHKpiXN6bC_AD9jO-3" value="National BIM standards" style="rounded=1;whiteSpace=wrap;html=1;fillColor=#d5e8d4;strokeColor=#82b366;strokeWidth=3;" parent="1" vertex="1">
          <mxGeometry x="1435.13" y="300" width="120" height="60" as="geometry" />
        </mxCell>
        <mxCell id="qG4jUHKpiXN6bC_AD9jO-11" style="edgeStyle=orthogonalEdgeStyle;orthogonalLoop=1;jettySize=auto;html=1;exitX=1;exitY=0.5;exitDx=0;exitDy=0;curved=1;endSize=4;strokeWidth=4;dashed=1;dashPattern=1 1;strokeColor=#FFFFFF;" parent="1" source="qG4jUHKpiXN6bC_AD9jO-4" target="qG4jUHKpiXN6bC_AD9jO-1" edge="1">
          <mxGeometry relative="1" as="geometry" />
        </mxCell>
        <mxCell id="qG4jUHKpiXN6bC_AD9jO-4" value="National Fire Regulations" style="rounded=1;whiteSpace=wrap;html=1;fillColor=#d5e8d4;strokeColor=#82b366;strokeWidth=3;" parent="1" vertex="1">
          <mxGeometry x="1440" y="97.5" width="120" height="60" as="geometry" />
        </mxCell>
        <mxCell id="qG4jUHKpiXN6bC_AD9jO-7" value="New digital standards" style="rounded=1;whiteSpace=wrap;html=1;arcSize=50;fillColor=none;strokeColor=none;fontStyle=1;fontSize=15;" parent="1" vertex="1">
          <mxGeometry x="1440" y="202.5" width="120" height="50" as="geometry" />
        </mxCell>
        <mxCell id="qG4jUHKpiXN6bC_AD9jO-22" value="New services and markets" style="rounded=1;whiteSpace=wrap;html=1;arcSize=50;fillColor=none;strokeColor=none;fontStyle=1;fontSize=15;" parent="1" vertex="1">
          <mxGeometry x="1250.05" y="295" width="120" height="50" as="geometry" />
        </mxCell>
        <mxCell id="qG4jUHKpiXN6bC_AD9jO-26" value="New software and applications" style="rounded=1;whiteSpace=wrap;html=1;arcSize=50;fillColor=none;strokeColor=none;fontStyle=1;fontSize=15;" parent="1" vertex="1">
          <mxGeometry x="1050" y="200" width="129.73" height="50" as="geometry" />
        </mxCell>
        <mxCell id="qG4jUHKpiXN6bC_AD9jO-28" value="Fire Consulting" style="rounded=1;whiteSpace=wrap;html=1;fillColor=#ffe6cc;strokeColor=#CDA2BE;" parent="1" vertex="1">
          <mxGeometry x="1245.05" y="50" width="120" height="60" as="geometry" />
        </mxCell>
        <mxCell id="qG4jUHKpiXN6bC_AD9jO-29" value="&lt;span&gt;&lt;font style=&quot;font-size: 11px&quot;&gt;International market&lt;/font&gt;&lt;/span&gt;" style="rounded=0;whiteSpace=wrap;html=1;strokeColor=none;verticalAlign=middle;arcSize=10;" parent="1" vertex="1">
          <mxGeometry x="1250.05" y="93" width="110" height="10" as="geometry" />
        </mxCell>
        <mxCell id="qG4jUHKpiXN6bC_AD9jO-30" value="Platform &amp;amp; service tasks" style="rounded=1;whiteSpace=wrap;html=1;fillColor=#ffe6cc;strokeColor=#CDA2BE;" parent="1" vertex="1">
          <mxGeometry x="1169.12" y="367.5" width="120" height="60" as="geometry" />
        </mxCell>
        <mxCell id="qG4jUHKpiXN6bC_AD9jO-31" value="&lt;span&gt;&lt;font style=&quot;font-size: 11px&quot;&gt;International market&lt;/font&gt;&lt;/span&gt;" style="rounded=0;whiteSpace=wrap;html=1;strokeColor=none;verticalAlign=middle;arcSize=10;" parent="1" vertex="1">
          <mxGeometry x="1174.12" y="412.5" width="110" height="10" as="geometry" />
        </mxCell>
        <mxCell id="qG4jUHKpiXN6bC_AD9jO-32" value="Fire code compliance &amp;amp; maintaince" style="rounded=1;whiteSpace=wrap;html=1;fillColor=#ffe6cc;strokeColor=#CDA2BE;strokeWidth=3;" parent="1" vertex="1">
          <mxGeometry x="1320" y="367.5" width="120" height="60" as="geometry" />
        </mxCell>
        <mxCell id="qG4jUHKpiXN6bC_AD9jO-33" value="&lt;span&gt;&lt;font style=&quot;font-size: 11px&quot;&gt;International market&lt;/font&gt;&lt;/span&gt;" style="rounded=0;whiteSpace=wrap;html=1;strokeColor=none;verticalAlign=middle;arcSize=10;" parent="1" vertex="1">
          <mxGeometry x="1325" y="412.5" width="110" height="10" as="geometry" />
        </mxCell>
        <mxCell id="qG4jUHKpiXN6bC_AD9jO-36" value="FireBIM Web service" style="rounded=1;whiteSpace=wrap;html=1;fillColor=#dae8fc;strokeColor=#6c8ebf;strokeWidth=3;" parent="1" vertex="1">
          <mxGeometry x="1054.86" y="97.5" width="120" height="60" as="geometry" />
        </mxCell>
        <mxCell id="qG4jUHKpiXN6bC_AD9jO-37" value="&lt;span&gt;&lt;font style=&quot;font-size: 11px&quot;&gt;Commercial&lt;/font&gt;&lt;/span&gt;" style="rounded=0;whiteSpace=wrap;html=1;strokeColor=none;verticalAlign=middle;arcSize=10;fillColor=default;shadow=0;" parent="1" vertex="1">
          <mxGeometry x="1081.86" y="137.5" width="68.25" height="10" as="geometry" />
        </mxCell>
        <mxCell id="qG4jUHKpiXN6bC_AD9jO-50" style="edgeStyle=orthogonalEdgeStyle;curved=1;orthogonalLoop=1;jettySize=auto;html=1;exitX=0.5;exitY=0;exitDx=0;exitDy=0;entryX=0;entryY=0.5;entryDx=0;entryDy=0;dashed=1;dashPattern=1 1;startArrow=none;startFill=0;endArrow=classic;endFill=1;endSize=4;strokeWidth=4;strokeColor=#FFFFFF;" parent="1" source="qG4jUHKpiXN6bC_AD9jO-40" target="qG4jUHKpiXN6bC_AD9jO-36" edge="1">
          <mxGeometry relative="1" as="geometry" />
        </mxCell>
        <mxCell id="qG4jUHKpiXN6bC_AD9jO-40" value="FireBIM server" style="rounded=1;whiteSpace=wrap;html=1;fillColor=#dae8fc;strokeColor=#6c8ebf;strokeWidth=3;" parent="1" vertex="1">
          <mxGeometry x="919.01" y="195" width="120" height="60" as="geometry" />
        </mxCell>
        <mxCell id="qG4jUHKpiXN6bC_AD9jO-41" value="&lt;span&gt;&lt;font style=&quot;font-size: 11px&quot;&gt;Open Source&lt;/font&gt;&lt;/span&gt;" style="rounded=0;whiteSpace=wrap;html=1;strokeColor=none;verticalAlign=middle;arcSize=10;" parent="1" vertex="1">
          <mxGeometry x="939.88" y="237" width="78.25" height="10" as="geometry" />
        </mxCell>
        <mxCell id="qG4jUHKpiXN6bC_AD9jO-48" style="edgeStyle=orthogonalEdgeStyle;curved=1;orthogonalLoop=1;jettySize=auto;html=1;exitX=0.5;exitY=1;exitDx=0;exitDy=0;entryX=1;entryY=0.5;entryDx=0;entryDy=0;dashed=1;dashPattern=1 1;startArrow=none;startFill=0;endArrow=classic;endFill=1;endSize=4;strokeWidth=4;strokeColor=#FFFFFF;" parent="1" source="qG4jUHKpiXN6bC_AD9jO-42" target="qG4jUHKpiXN6bC_AD9jO-44" edge="1">
          <mxGeometry relative="1" as="geometry" />
        </mxCell>
        <mxCell id="qG4jUHKpiXN6bC_AD9jO-42" value="FireBIM ontology" style="rounded=1;whiteSpace=wrap;html=1;fillColor=#dae8fc;strokeColor=#6c8ebf;strokeWidth=3;" parent="1" vertex="1">
          <mxGeometry x="1190" y="192.5" width="120" height="60" as="geometry" />
        </mxCell>
        <mxCell id="qG4jUHKpiXN6bC_AD9jO-43" value="&lt;span&gt;&lt;font style=&quot;font-size: 11px&quot;&gt;Open Source&lt;/font&gt;&lt;/span&gt;" style="rounded=0;whiteSpace=wrap;html=1;strokeColor=none;verticalAlign=middle;arcSize=10;" parent="1" vertex="1">
          <mxGeometry x="1210.8700000000001" y="234.5" width="78.25" height="10" as="geometry" />
        </mxCell>
        <mxCell id="qG4jUHKpiXN6bC_AD9jO-49" style="edgeStyle=orthogonalEdgeStyle;curved=1;orthogonalLoop=1;jettySize=auto;html=1;exitX=0;exitY=0.5;exitDx=0;exitDy=0;entryX=0.5;entryY=1;entryDx=0;entryDy=0;dashed=1;dashPattern=1 1;startArrow=none;startFill=0;endArrow=classic;endFill=1;endSize=4;strokeWidth=4;strokeColor=#FFFFFF;" parent="1" source="qG4jUHKpiXN6bC_AD9jO-44" target="qG4jUHKpiXN6bC_AD9jO-40" edge="1">
          <mxGeometry relative="1" as="geometry" />
        </mxCell>
        <mxCell id="qG4jUHKpiXN6bC_AD9jO-44" value="FireBIM exchange format" style="rounded=1;whiteSpace=wrap;html=1;fillColor=#dae8fc;strokeColor=#6c8ebf;strokeWidth=3;" parent="1" vertex="1">
          <mxGeometry x="1055.99" y="300" width="120" height="60" as="geometry" />
        </mxCell>
        <mxCell id="qG4jUHKpiXN6bC_AD9jO-45" value="&lt;span&gt;&lt;font style=&quot;font-size: 11px&quot;&gt;Open Source&lt;/font&gt;&lt;/span&gt;" style="rounded=0;whiteSpace=wrap;html=1;strokeColor=none;verticalAlign=middle;arcSize=10;" parent="1" vertex="1">
          <mxGeometry x="1076.74" y="345" width="78.25" height="10" as="geometry" />
        </mxCell>
        <mxCell id="qG4jUHKpiXN6bC_AD9jO-53" value="&lt;span&gt;&lt;font style=&quot;font-size: 11px&quot;&gt;Diverse, scattered&lt;/font&gt;&lt;/span&gt;" style="rounded=0;whiteSpace=wrap;html=1;strokeColor=none;verticalAlign=middle;arcSize=10;" parent="1" vertex="1">
          <mxGeometry x="1455" y="142.5" width="96" height="10" as="geometry" />
        </mxCell>
        <mxCell id="qG4jUHKpiXN6bC_AD9jO-54" value="&lt;span&gt;&lt;font style=&quot;font-size: 11px&quot;&gt;Unified, standard&lt;/font&gt;&lt;/span&gt;" style="rounded=0;whiteSpace=wrap;html=1;strokeColor=none;verticalAlign=middle;arcSize=10;" parent="1" vertex="1">
          <mxGeometry x="1573" y="237.5" width="96" height="10" as="geometry" />
        </mxCell>
        <mxCell id="qG4jUHKpiXN6bC_AD9jO-55" value="&lt;span&gt;&lt;font style=&quot;font-size: 11px&quot;&gt;region specific&lt;/font&gt;&lt;/span&gt;" style="rounded=0;whiteSpace=wrap;html=1;strokeColor=none;verticalAlign=middle;arcSize=10;" parent="1" vertex="1">
          <mxGeometry x="1455" y="345" width="83.13" height="10" as="geometry" />
        </mxCell>
        <mxCell id="qG4jUHKpiXN6bC_AD9jO-56" value="&lt;span&gt;&lt;font style=&quot;font-size: 11px&quot;&gt;Unified, standard&lt;/font&gt;&lt;/span&gt;" style="rounded=0;whiteSpace=wrap;html=1;strokeColor=none;verticalAlign=middle;arcSize=10;" parent="1" vertex="1">
          <mxGeometry x="1334.22" y="237.5" width="91.56" height="10" as="geometry" />
        </mxCell>
        <mxCell id="vK0WwbaWGMjrCPaPeF2_-1" value="Challenge 1. Fire code detailing and interpretation varies greatly from country to country" style="shape=callout;whiteSpace=wrap;html=1;perimeter=calloutPerimeter;strokeWidth=2;position2=0.16;size=28;position=0.16;" vertex="1" parent="1">
          <mxGeometry x="1573" y="26.25" width="214.87" height="107.5" as="geometry" />
        </mxCell>
        <mxCell id="vK0WwbaWGMjrCPaPeF2_-2" value="" style="shape=callout;whiteSpace=wrap;html=1;perimeter=calloutPerimeter;strokeWidth=2;position2=0.95;size=36;position=0.81;rotation=-180;base=20;" vertex="1" parent="1">
          <mxGeometry x="1610" y="302.5" width="210" height="118.75" as="geometry" />
        </mxCell>
        <mxCell id="vK0WwbaWGMjrCPaPeF2_-3" value="Challenge 2: Each country have different ways to store and exchange fire related data" style="text;html=1;strokeColor=none;fillColor=none;align=center;verticalAlign=middle;whiteSpace=wrap;rounded=0;" vertex="1" parent="1">
          <mxGeometry x="1620" y="344" width="190" height="70" as="geometry" />
        </mxCell>
        <mxCell id="vK0WwbaWGMjrCPaPeF2_-4" value="" style="shape=callout;whiteSpace=wrap;html=1;perimeter=calloutPerimeter;strokeWidth=2;position2=0.1;size=38;position=0.14;rotation=-180;base=20;" vertex="1" parent="1">
          <mxGeometry x="790" y="308.75" width="210" height="118.75" as="geometry" />
        </mxCell>
        <mxCell id="vK0WwbaWGMjrCPaPeF2_-5" value="Challenge 3: Exchange formats can include low level geospatial information which significantly increases complexity" style="text;html=1;strokeColor=none;fillColor=none;align=center;verticalAlign=middle;whiteSpace=wrap;rounded=0;" vertex="1" parent="1">
          <mxGeometry x="800" y="350.25" width="190" height="70" as="geometry" />
        </mxCell>
        <mxCell id="vK0WwbaWGMjrCPaPeF2_-6" value="Challenge 4. The FireBIM server need to be highly responsive, highly flexible and highly robust" style="shape=callout;whiteSpace=wrap;html=1;perimeter=calloutPerimeter;strokeWidth=2;position2=0.91;size=23;position=0.72;base=30;" vertex="1" parent="1">
          <mxGeometry x="785.13" y="35" width="214.87" height="107.5" as="geometry" />
        </mxCell>
      </root>
    </mxGraphModel>
  </diagram>
</mxfile>
